<svg xmlns="http://www.w3.org/2000/svg" width="79.648" height="76.702" viewBox="0 0 79.648 76.702">
  <g id="_x31_9" transform="translate(-1.446 -2.65)">
    <path id="Path_121279" data-name="Path 121279" d="M2.014,26.178a6.785,6.785,0,0,0,.629,1.816c1.331.337,2.781.644,4.142.973l.317,1.7a12.505,12.505,0,0,1-3.048,2.476,1.137,1.137,0,0,0-.266.068,1.18,1.18,0,0,0-.545,1.575l2.4,4.941a1.179,1.179,0,0,0,1.061.663c.007,0,.013,0,.02,0a1.159,1.159,0,0,0,.152.021s.009,0,.014,0l1.521.98c1.248-.635,2.548-1.3,3.811-1.943.447.271,1.053.656,1.323.826l-.734,4.014a1.116,1.116,0,0,0-.086.141,1.207,1.207,0,0,0,.8,1.547c.123.042.051.047.214.069a17.8,17.8,0,0,0,5.676,1,1.3,1.3,0,0,0,.953-.475,4.817,4.817,0,0,0,1.28-.548c.547-1.436,1.178-2.694,1.747-4.083.471-.038,1.18-.073,1.471-.087l2.392,3.267a1.177,1.177,0,0,0,.951.481,10.243,10.243,0,0,0,1.893-.669,3.707,3.707,0,0,0,.038,3.229c.6,3.878,3.207,5.44,6.6,7.308L56.671,66.442a3.877,3.877,0,0,0-.278,3.05A3.263,3.263,0,0,0,59.2,71.5a28.582,28.582,0,0,0,4.9,6.578l1.065-.333c.908,1.255,2.268.006,1.6-.922a67.306,67.306,0,0,0-5.476-6.653A78.455,78.455,0,0,0,71.626,66.44a20.327,20.327,0,0,0,6.686-5.023l1,2.717a.917.917,0,1,0,1.72-.636c-1.391-3.687-1.273-3.618-1.509-3.864,1.279-2.821-1.061-4.869-2.855-4.232a.917.917,0,0,0,.619,1.727c.263-.09.736.34.769.805a3.114,3.114,0,0,1-.91,2.038c-3.542,4.427-9.321,6.2-14.633,7.9a9.78,9.78,0,0,1-2.788.677c-.978-.056-1.125-.2-1.289-.569a3.316,3.316,0,0,1,1.189-2.21.9.9,0,0,0,.387-.169,9.593,9.593,0,0,0,2.695.549.917.917,0,0,0,.086-1.833c-5.219-.246-24.307-11.818-28.818-14.9-1.944-1.342-3.048-2.355-1.928-4.31,1.547-2.7,5.783-.543,8.726.691a14.18,14.18,0,0,1,5.2,3.255s0,0,0,0a.919.919,0,0,0,1.374.008,5.327,5.327,0,0,0,.984-.769,1.6,1.6,0,0,0,.259-1.408,31.052,31.052,0,0,0-1.655-8.6c-4.111-14.021-5.763-16.366-5.991-18.911-.106-1.2.117-2.337.5-2.537.464-.25,1.48.186,2.081.737,2.889,2.657,5.733,13.787,6.624,17.209a.917.917,0,0,0,1.775-.464c-.705-2.7-1.189-4.524-1.869-6.755a2.363,2.363,0,0,1,2.175-.816c2.154.525,1.908,2,3.991,8.4a.917.917,0,1,0,1.744-.569c-1.385-4.258-1.559-5.416-2.2-6.973a1.741,1.741,0,0,1,1.677-.983c2.866.13,3.875,4.758,4.525,7.576a.917.917,0,1,0,1.787-.411c-.272-1.183-.5-2.106-.8-3.059a.907.907,0,0,0,.089-.33A1.739,1.739,0,0,1,64.49,28.8H64.5a4.2,4.2,0,0,1,2.6,1.67c1.093,1.376,5.21,13.879,5.816,15.781,1.36,4.262,1.477,7.386.394,10.45a.917.917,0,1,0,1.73.612c1.552-4.388.614-8.514-.375-11.618C72.438,38.708,70.578,33.915,70,32.324a10.294,10.294,0,0,0-1.463-2.994c-1.96-2.47-4.187-2.413-4.064-2.364a3.238,3.238,0,0,0-2.452,1.294C60.1,24.321,56.486,24.013,54.648,26a4.117,4.117,0,0,0-5.212-.344,50.009,50.009,0,0,0-2.772-6.811,9.6,9.6,0,0,0-1.9-2.617C44,15.521,42.13,14.4,40.584,15.219c-1.11.588-1.415,1.99-1.478,3.086-.777-1.149-1.591-2.275-2.468-3.338a1.2,1.2,0,0,0-1.326-.358,20.469,20.469,0,0,0-3.443,1.356L30.189,14.4a15,15,0,0,0,.228-4.3,1.173,1.173,0,0,0-.745-1.437,21.78,21.78,0,0,0-6.017-1.177,1.168,1.168,0,0,0-1.151.664A22.689,22.689,0,0,0,21.075,12.1a13.008,13.008,0,0,0-3.529.109L15.471,9.1a1.176,1.176,0,0,0-1.633-.324,1.119,1.119,0,0,0-.135.136c-4.577,3.014-4.225,2.663-4.545,3.045a1.273,1.273,0,0,0-.252.911,4.657,4.657,0,0,0-.578,1.49c.557,1.076,1.13,2.143,1.7,3.214l-1.1,2.01-4.3-1.356a1.17,1.17,0,0,0-1.524,1.2c-.647,1.9-1.011,3.767-1.582,5.334a1.223,1.223,0,0,0,.5,1.42ZM56.892,66.564c-.036.092-.07.187-.1.288a2.383,2.383,0,0,1,0-.345ZM40.638,43.75c-1.838-.8-4.44-1.921-6.687-1.746.1-.608-.116-.616-1.5-4.422a23.007,23.007,0,0,1,2.137-2.556c3.45.606,3.655.812,4.21.492l.023-.013a1.154,1.154,0,0,0,.5-.635,18.479,18.479,0,0,0,1.625-5.186,1.159,1.159,0,0,0-.879-1.233,32,32,0,0,0-3.821-1.861,11.023,11.023,0,0,0,.133-2.835,21.659,21.659,0,0,0,2.471-1.673c.672,2.576,2.234,7.055,2.789,9.206L45.5,46.216a24.882,24.882,0,0,0-4.858-2.466ZM21.694,14.535a1.155,1.155,0,0,0,1-.347c.725-.528.216-.945,1.642-4.294a21.519,21.519,0,0,1,3.756.751c.221,3.264-.731,3.816-.1,4.7.183.581.318.437,2.83,2.857a1.121,1.121,0,0,0,1.173.239c.6-.089.806-.526,3.317-1.346q1.154,1.458,2.18,3.021a19.413,19.413,0,0,1-2.561,1.742,1.108,1.108,0,0,0-.168.009,1.177,1.177,0,0,0-.843,1.436,8.485,8.485,0,0,1-.156,3.824,1.172,1.172,0,0,0,1.1,1.428,29.746,29.746,0,0,1,3.587,1.7,17.244,17.244,0,0,1-.947,2.926l-3.3-.62a1.174,1.174,0,0,0-1.349.876,25.383,25.383,0,0,0-2.467,2.975,1.162,1.162,0,0,0-.4,1.34L31.4,41.443a11.847,11.847,0,0,1-2.779,1.533c-3.56-4.541-1.3-3.479-7.077-3.3a1.166,1.166,0,0,0-1.491.792c-.4,1.4-.856,2.8-1.344,4.168a15.457,15.457,0,0,1-3.461-.594l.779-4.262a1.163,1.163,0,0,0-1-1.369c-1.522-.972-2-1.214-3.145-1.962a1.153,1.153,0,0,0-1.095-.32c-.44.078-.231.1-3.5,1.6L5.868,34.792A14.921,14.921,0,0,0,9.31,31.731a1.161,1.161,0,0,0,.174-1.145c-.8-3.9-.583-3.952-1.021-4.438a1.149,1.149,0,0,0-.566-.439L4.087,24.447c.462-1.521.589-2.175,1.021-3.6L8.763,22a1.1,1.1,0,0,0,.118.1,1.165,1.165,0,0,0,.565.146,1.177,1.177,0,0,0,1.033-.612c2.272-4.272,2.463-4.186,2.455-4.816.3-.8-.263-1.142-1.378-3.705l2.626-1.7,1.844,2.759a1.166,1.166,0,0,0,1.342.463,11.055,11.055,0,0,1,4.326-.1Z" transform="translate(0 1.08)" fill="#011343"/>
    <path id="Path_121280" data-name="Path 121280" d="M12.473,18.936a9.573,9.573,0,0,0-.665,11.435A9.665,9.665,0,0,0,19.7,34.4,9.464,9.464,0,0,0,21.5,15.7c-.123-.025-.055-.011-1.543-.085-3.411.091-5.439.992-7.482,3.322Zm7.455-.97,1.2.061a7.213,7.213,0,0,1,5.436,6.43s0,0,0,0a7.26,7.26,0,0,1-4.654,7.217,7.317,7.317,0,0,1-8.162-2.637,7.253,7.253,0,0,1,.491-8.55,6.7,6.7,0,0,1,5.685-2.524Z" transform="translate(1.961 2.895)" fill="#011343"/>
    <path id="Path_121281" data-name="Path 121281" d="M29.264,3.518l-.3,5.352a.918.918,0,1,0,1.833.105l.3-5.352a.918.918,0,0,0-1.833-.105Z" transform="translate(6.144 0)" fill="#bc2c00"/>
    <path id="Path_121282" data-name="Path 121282" d="M36.081,4.77a.917.917,0,0,0-1.29.136L31.762,8.642A.917.917,0,0,0,33.186,9.8L36.217,6.06a.917.917,0,0,0-.136-1.29Z" transform="translate(6.724 0.428)" fill="#bc2c00"/>
    <path id="Path_121283" data-name="Path 121283" d="M34.949,11.857l3.842-.79a.917.917,0,0,0-.37-1.8l-3.84.79a.917.917,0,0,0,.368,1.8Z" transform="translate(7.236 1.474)" fill="#bc2c00"/>
  </g>
</svg>
