<svg xmlns="http://www.w3.org/2000/svg" width="58" height="54.767" viewBox="0 0 58 54.767">
  <g id="_x37_7" transform="translate(-3.75 -5.575)">
    <path id="Path_120788" data-name="Path 120788" d="M4.414,65.08h0c2.507-.025,4.669.148,7.568-.011,0,.02,0,.042,0,.062a2.172,2.172,0,0,0,2.094-2.07c.037-13.851.329-13.664-.126-14.22a4.891,4.891,0,0,0-1.273-1.077v.015c-.233-.1.176-.022-7.791-.331a.661.661,0,0,0-.688.644c-.155,5.294-.293,11-.448,16.3a.664.664,0,0,0,.664.683ZM5.506,48.8l6.216.226c-.19,4.707.13,10.093-.063,14.736-2.248.108-4.278,0-6.562-.01.07-2.443.264-9.935.409-14.952Z" transform="translate(0 -4.794)" fill="#011343"/>
    <path id="Path_120789" data-name="Path 120789" d="M41.7,62.643c0,.017,0,.034,0,.051.482.083.946-.478,1.172-.912a3.53,3.53,0,0,0,.3-1.433c.591-9.931.434-19.452.535-30.155a1.526,1.526,0,0,0-.464-1.081c-.4-.4-.8-.86-1.2-1.2l0,.061a.647.647,0,0,0-.3-.105c-7.889-.525-7.675-.75-8.053-.4-.33.3-.785,34.73-.471,35.046a.645.645,0,0,0,.477.2c2.391-.016,5.971.314,8-.068Zm-.771-1.24a58.755,58.755,0,0,1-6.557-.019c.144-10.345.279-21.938.428-32.708l6.222.473c-.228,10.192.136,22.079-.093,32.254Z" transform="translate(-3.363 -2.488)" fill="#011343"/>
    <path id="Path_120790" data-name="Path 120790" d="M32.262,16.311a.665.665,0,0,0,1.081.135c2.379-2.642,3.859-5.761,6.164-8.321a.664.664,0,0,0-.356-1.094A111.352,111.352,0,0,0,27.83,5.583a.664.664,0,0,0-.66.969c.771,1.465,1.642,3.14,2.514,4.817-10.177,4.1-18.089,12.293-21.2,21.984a.664.664,0,0,0,1.265.406c3-9.357,10.674-17.266,20.547-21.208.684,1.316,1.355,2.6,1.964,3.761Z" transform="translate(-0.539)" fill="#011343"/>
    <path id="Path_120791" data-name="Path 120791" d="M58.219,17.027h.019a.664.664,0,0,0,.663-.646l.174-6.252a.664.664,0,0,0-.645-.682.678.678,0,0,0-.682.645l-.174,6.253a.664.664,0,0,0,.645.682Z" transform="translate(-6.163 -0.443)" fill="#bc2c00"/>
    <path id="Path_120792" data-name="Path 120792" d="M65.245,11.957a.664.664,0,0,0-.926.155l-3.613,5.06a.664.664,0,1,0,1.081.771l3.613-5.06A.664.664,0,0,0,65.245,11.957Z" transform="translate(-6.507 -0.717)" fill="#bc2c00"/>
    <path id="Path_120793" data-name="Path 120793" d="M67.775,20.208l-4.343.512a.664.664,0,0,0,.155,1.32l4.344-.512a.664.664,0,0,0-.156-1.32Z" transform="translate(-6.766 -1.675)" fill="#bc2c00"/>
    <path id="Path_120794" data-name="Path 120794" d="M28.151,63.271a1.593,1.593,0,0,0,.949-1.462V37.787a1.634,1.634,0,0,0-.438-1.112,4.966,4.966,0,0,0-1.025-.841l0,.138a.648.648,0,0,0-.353-.141c-7.836-.375-7.672-.6-8.046-.255a.661.661,0,0,0-.212.476c-.434,29.165-.448,27.155-.177,27.428a.785.785,0,0,0,.477.2,76.5,76.5,0,0,0,7.922-.065v.055c.284-.121.6-.257.907-.394Zm-1.6-.929c-2.24.183-4.274.015-6.559,0,.121-8.255.229-17.36.35-25.582l6.221.355c-.195,7.971.184,17.283-.013,25.223Z" transform="translate(-1.708 -3.415)" fill="#011343"/>
    <path id="Path_120795" data-name="Path 120795" d="M58.059,58.258A318.664,318.664,0,0,0,58.5,22.419a2.321,2.321,0,0,0-.151-.73C58,20.781,57.69,19.9,56.789,19.6a.65.65,0,0,0-.327-.137c-7.788-.646-7.672-.884-8.061-.534a.666.666,0,0,0-.22.486c-.515,44.829-.545,41.8-.253,42.094a.737.737,0,0,0,.477.195c1.823-.007,6.953.375,8.13-.124,0,.051,0,.1,0,.152,1.185-.6,1.43-2.154,1.524-3.478ZM55.626,60.4a47.59,47.59,0,0,1-6.556-.022c.154-13.5.281-27.04.432-40.225l6.223.578c-.234,12.524.137,27.2-.1,39.67Z" transform="translate(-5.037 -1.511)" fill="#011343"/>
  </g>
</svg>
