<svg xmlns="http://www.w3.org/2000/svg" width="79.648" height="57" viewBox="0 0 79.648 57">
  <g id="_x31_29" transform="translate(-1.286 -10.588)">
    <path id="Path_120806" data-name="Path 120806" d="M80.728,37.811c-2.434-2.987-6.2-13.238-6.92-17.242.366-.194.715-.381,1.033-.552a.913.913,0,1,0-.867-1.607c-4.223,2.277-7.72,3.918-8.506,3.992a.914.914,0,0,0-.823,1c.036.386,0,.534.037.744-8.805,4.121-14-1.247-19.35-.974-7.943-3.9-15.273,1.291-22.5-.016-2.842-.513-5.488-2.287-8.219-3.827a1.043,1.043,0,0,0-.778-1.5c-1.485-.909-6.557-4.042-7.231-4.446a.909.909,0,0,0-.968,1.539C5.51,18.6,3.488,28.811,1.438,31.9a.913.913,0,0,0,1.522,1.008C5.17,29.577,7,20.322,7.4,16c1.955,1.2,4.257,2.625,5.34,3.288C11.48,26.111,10.1,34.407,7.874,40.9L5.955,39.77a.905.905,0,0,0-1.119,1.4c.09.446.164.915.282,1.316A21.637,21.637,0,0,0,9.2,44.877,1.889,1.889,0,0,0,9.79,43.8c1.166.751,2.329,1.8,3.495,2.549-1.829,1.934.848,8.009,4.69,7.008a4.55,4.55,0,0,0,5.72,5.068,4.771,4.771,0,0,0,6.264,4.593c1.123,4.131,6.375,5.257,8.539,2.419a10.3,10.3,0,0,0,7.193-.625,4.412,4.412,0,0,0,5.976-3.2,4.407,4.407,0,0,0,6.11-3.226,4.351,4.351,0,0,0,5.325-4.55c3.61-2.048,7.32-4.178,10.933-6.228a.076.076,0,0,1,.112.06,1.233,1.233,0,0,0,.692.8,27.369,27.369,0,0,0,5.035-2.1c.3-.742.282-.737.1-2.177a.9.9,0,0,0-1.12-1.115,14.721,14.721,0,0,0-3.424,1.5A48.175,48.175,0,0,1,66.515,24a47.151,47.151,0,0,0,5.607-2.555c.98,4.576,4.668,14.418,7.191,17.515a.913.913,0,0,0,1.416-1.153ZM20.05,49.461c-.006.012-.005.025-.011.037-.371.378-.73.726-1.073,1.015a2.441,2.441,0,0,1-2.185-4.327c.015,0,.028,0,.043,0a3.017,3.017,0,0,1,2.837,1.321,2.045,2.045,0,0,1,.389,1.952Zm4.73,6.275a3.253,3.253,0,0,1-4.331-4.1c.393-.358.785-.742,1.191-1.158,1.958-2.009,3.376-3.257,5.194-2.341a3.5,3.5,0,0,1,1.859,2.678,38.188,38.188,0,0,0-3.914,4.92ZM30.092,60.3a2.4,2.4,0,0,1-3.733-1.271,6.79,6.79,0,0,1-.086-2.311c4.9-6.052,4.129-5.09,4.2-5.2a4.345,4.345,0,0,1,1.949.241c.854.352,1.675,1.39,1.63,3.434-.084.122-2.809,4.239-3.956,5.105Zm6.491-.389c-.538,1.347-.868,3.107-.4,4.109a2.426,2.426,0,0,1-1.6.043,4.756,4.756,0,0,1-2.9-2.7,41.894,41.894,0,0,0,3.609-4.746,1.765,1.765,0,0,1,1.732,1.564,4.373,4.373,0,0,1-.443,1.732Zm1.387,1.512a15.654,15.654,0,0,0,.827-2.537c.439.339,4.225,3.331,5.073,4.009a4.456,4.456,0,0,1-5.9-1.472Zm20-6.05c-2.192-.294-9.232-7.877-10.646-9.589a.913.913,0,0,0-1.408,1.163c1.968,2.383,8.1,8.512,9.777,9.5a3.551,3.551,0,0,1-4.58,2.48c-1.417-.482-2.039-1.307-8.125-7.485a.913.913,0,1,0-1.3,1.282c5.7,5.777,6.349,6.575,7.677,7.378a2.594,2.594,0,0,1-2.526,2.229c-1.7-.03-8.737-7.125-10.961-7.5a5.049,5.049,0,0,0-2.765-4.761,6.214,6.214,0,0,0-2.772-.37,5.507,5.507,0,0,0-2.688-3.2c-2.345-1.183-4.286-.105-5.852,1.268-.873-2.782-4.093-4.027-5.787-3.253a47.847,47.847,0,0,0-6.074-4.041,159.577,159.577,0,0,0,4.3-19.271c2.661,1.532,5.287,3.2,8.272,3.736,6.543,1.179,13.428-2.564,19.532-1.049-6.472,2.26-12.929,6.914-14.161,13.638-.429,2.347.422,4.621,2.831,4.93,3.8,1.107,7.445-4.175,9.267-5.5a5.371,5.371,0,0,1,4.211-1.029c4.289,2.9,14.594,13.787,14.705,13.91,2.662,2.928,1.233,5.811-.925,5.527ZM73.227,44.646a39.565,39.565,0,0,0-11.576,6.127,11.031,11.031,0,0,0-2.829-3.619c-4.179-4.074-9.834-10.723-15.342-13.805a2.988,2.988,0,0,1,.434-.021.945.945,0,0,0,.936-.89.914.914,0,0,0-.89-.936,9.461,9.461,0,0,0-5.772,2.474c-2.1,2.209-3.341,5.569-6,6.547-1.975.73-2.867-.709-2.51-2.661C30.993,30.7,40.04,25.907,44.666,25.072c4.9-.89,10.555,5.187,20.367.915a50.619,50.619,0,0,0,8.193,18.659Z" transform="translate(0 0.578)" fill="#011343"/>
    <path id="Path_120807" data-name="Path 120807" d="M56.9,24.58a1.343,1.343,0,0,0,.042,1.073,1.3,1.3,0,0,0,2.222.168,1.241,1.241,0,0,0-.35-1.685c-.466-.764-1.57-.462-1.915.443Z" transform="translate(12.067 2.85)" fill="#011343"/>
    <path id="Path_120808" data-name="Path 120808" d="M7.189,21.1A1.318,1.318,0,0,0,9.22,20.31a1.29,1.29,0,0,0-.362-1.176A1.292,1.292,0,1,0,7.189,21.1Z" transform="translate(1.169 1.772)" fill="#011343"/>
    <path id="Path_120809" data-name="Path 120809" d="M29.184,10.674a.913.913,0,0,0-.443,1.213L32.18,19.28a.913.913,0,0,0,1.656-.77L30.4,11.116a.911.911,0,0,0-1.213-.442Z" transform="translate(5.948 0)" fill="#bc2c00"/>
    <path id="Path_120810" data-name="Path 120810" d="M37.53,11.734l-1.922,6.612a.913.913,0,1,0,1.753.509l1.922-6.612a.913.913,0,0,0-1.753-.509Z" transform="translate(7.451 0.106)" fill="#bc2c00"/>
    <path id="Path_120811" data-name="Path 120811" d="M44.912,15.943,40.653,18.6a.913.913,0,1,0,.965,1.55l4.259-2.655a.913.913,0,1,0-.965-1.55Z" transform="translate(8.462 1.134)" fill="#bc2c00"/>
  </g>
</svg>
