<svg id="Icon_awesome-linkedin" data-name="Icon awesome-linkedin" xmlns="http://www.w3.org/2000/svg" width="42.132" height="42.131" viewBox="0 0 42.132 42.131">
  <path id="Icon_awesome-linkedin-2" data-name="Icon awesome-linkedin" d="M39.123,2.25H3A3.023,3.023,0,0,0,0,5.287V41.344a3.023,3.023,0,0,0,3,3.037H39.123a3.03,3.03,0,0,0,3.01-3.037V5.287a3.03,3.03,0,0,0-3.01-3.037ZM12.733,38.362H6.49V18.256h6.255V38.362ZM9.612,15.51a3.621,3.621,0,1,1,3.621-3.621A3.621,3.621,0,0,1,9.612,15.51ZM36.142,38.362H29.9v-9.78c0-2.332-.048-5.333-3.244-5.333-3.254,0-3.752,2.539-3.752,5.163v9.95H16.654V18.256h5.99V21h.085a6.578,6.578,0,0,1,5.915-3.244c6.32,0,7.5,4.167,7.5,9.583Z" transform="translate(0 -2.25)" fill="#bc2c00"/>
</svg>
