<svg id="User_Password" xmlns="http://www.w3.org/2000/svg" width="63.207" height="57.025" viewBox="0 0 63.207 57.025">
  <g id="Group_43575" data-name="Group 43575" transform="translate(0 0)">
    <path id="Path_120796" data-name="Path 120796" d="M47.151,44.368a2.1,2.1,0,0,0,1.11-1.786.72.72,0,0,0,.27-.555,39.473,39.473,0,0,0-2.18-5.661.732.732,0,1,0-1.331.61c.782,1.7,1.421,3.358,1.772,4.333l-32.771.541C16.7,29.243,35.658,21.143,43.37,33.861a.732.732,0,0,0,1.252-.76C36.367,19.482,13.312,25.753,9.1,44.97c37.376-.421,37.357-.335,38.053-.6Z" transform="translate(-3.755 -7.244)" fill="#011343"/>
    <path id="Path_120797" data-name="Path 120797" d="M34.919,22.561A7.972,7.972,0,0,0,39.973,11.87a8.814,8.814,0,0,0-11.179-4.5c-.912.345-1.254.628-1.625.774A8.351,8.351,0,0,0,22.7,18.862c1.7,4.105,7.336,6.351,12.222,3.7Zm3.709-10.112A6.507,6.507,0,0,1,34.7,21.1a7.333,7.333,0,0,1-9.316-3.708C23.5,13.012,26.95,8.252,31.985,8.252a7.18,7.18,0,0,1,6.643,4.2Z" transform="translate(-4.066 -6.791)" fill="#011343"/>
    <path id="Path_120798" data-name="Path 120798" d="M3.625,52.09c.346,4.556.843,8.12,1.188,12.677,18.751-.33,36.643.066,55.328.066a13.573,13.573,0,0,1,.712-1.484.739.739,0,0,0,.543-.85c-.511-4.189-.2-6.942-1.138-10.782a.732.732,0,1,0-1.422.349c.839,3.415.63,6.094,1.02,9.855-12.986,0-23.886.07-52.394.1C7.134,58.593,6.969,54.676,6.621,51c17.01,0,34.122-.088,51.3-.088a.732.732,0,0,0,0-1.464c-17.288,0-34.428.086-51.767.088a.875.875,0,0,0-1.236.9.712.712,0,0,0,.052.13A18.092,18.092,0,0,0,3.625,52.09Z" transform="translate(-3.625 -7.808)" fill="#011343"/>
    <path id="Path_120799" data-name="Path 120799" d="M17.532,55.363a.732.732,0,0,0-.949-.413l-1.158.456.278-1.288a.732.732,0,1,0-1.431-.309l-.346,1.6c-.444-.36-.894-.714-1.322-1.09a.732.732,0,1,0-.966,1.1c.392.344.805.666,1.21,1l-1.568.618a.732.732,0,1,0,.537,1.362l1.6-.631-.31,1.436a.732.732,0,1,0,1.431.309l.33-1.531c.406.3.8.6,1.218.886a.732.732,0,1,0,.825-1.21c-.383-.261-.753-.547-1.129-.821l1.337-.527a.732.732,0,0,0,.413-.949Z" transform="translate(-3.796 -7.898)" fill="#011343"/>
    <path id="Path_120800" data-name="Path 120800" d="M31.51,55.272a.733.733,0,0,0-.949-.413l-1.158.456.278-1.289a.732.732,0,1,0-1.431-.309l-.346,1.6c-.444-.36-.894-.715-1.321-1.09a.732.732,0,0,0-.966,1.1c.391.343.8.666,1.21,1l-1.568.618a.732.732,0,0,0,.537,1.362l1.6-.631-.31,1.436a.732.732,0,0,0,1.431.309l.33-1.532c.406.3.8.6,1.218.885a.732.732,0,0,0,.825-1.21c-.383-.261-.753-.547-1.129-.821l1.337-.527a.732.732,0,0,0,.413-.949Z" transform="translate(-4.13 -7.896)" fill="#011343"/>
    <path id="Path_120801" data-name="Path 120801" d="M43.775,55.092a.733.733,0,0,0-.949-.413l-1.158.456.278-1.288a.732.732,0,0,0-1.431-.309l-.346,1.6c-.444-.36-.894-.714-1.321-1.09a.732.732,0,0,0-.966,1.1c.392.344.8.666,1.21,1l-1.568.618a.732.732,0,1,0,.537,1.362l1.6-.631-.31,1.436a.732.732,0,1,0,1.431.309l.33-1.531c.405.3.8.6,1.217.885a.732.732,0,1,0,.825-1.21c-.383-.261-.752-.547-1.129-.821l1.337-.527a.732.732,0,0,0,.413-.949Z" transform="translate(-4.422 -7.892)" fill="#011343"/>
    <path id="Path_120802" data-name="Path 120802" d="M56.311,54.912a.732.732,0,0,0-.949-.413l-1.158.456.278-1.289a.732.732,0,0,0-1.431-.309l-.346,1.6c-.444-.36-.894-.714-1.321-1.089a.732.732,0,0,0-.966,1.1c.392.343.8.666,1.21,1l-1.568.618a.732.732,0,1,0,.537,1.362l1.6-.631-.31,1.436a.732.732,0,1,0,1.431.309l.33-1.532c.405.3.8.6,1.217.885a.732.732,0,0,0,.825-1.21c-.383-.261-.752-.547-1.128-.821l1.337-.527a.732.732,0,0,0,.413-.949Z" transform="translate(-4.721 -7.888)" fill="#011343"/>
    <path id="Path_120803" data-name="Path 120803" d="M58.2,46.694a.733.733,0,0,0,.819-.633A29.4,29.4,0,0,1,60.325,40.4a.732.732,0,1,0-1.387-.469,30.832,30.832,0,0,0-1.372,5.946A.733.733,0,0,0,58.2,46.694Z" transform="translate(-4.911 -7.569)" fill="#bc2c00"/>
    <path id="Path_120804" data-name="Path 120804" d="M62.534,47.14,66.7,42.85a.732.732,0,0,0-1.051-1.019l-4.162,4.29a.732.732,0,0,0,1.051,1.019Z" transform="translate(-4.999 -7.621)" fill="#bc2c00"/>
    <path id="Path_120805" data-name="Path 120805" d="M63.536,49.928a.733.733,0,0,0,.99.305l3.342-1.767a.732.732,0,1,0-.684-1.295l-3.342,1.767a.732.732,0,0,0-.305.99Z" transform="translate(-5.051 -7.752)" fill="#bc2c00"/>
  </g>
</svg>
